<?xml version="1.0" standalone="no"?>
<!DOCTYPE svg PUBLIC "-//W3C//DTD SVG 20010904//EN"
 "http://www.w3.org/TR/2001/REC-SVG-20010904/DTD/svg10.dtd">
<svg version="1.0" xmlns="http://www.w3.org/2000/svg"
 width="512.000000pt" height="512.000000pt" viewBox="0 0 512.000000 512.000000"
 preserveAspectRatio="xMidYMid meet">
<metadata>
Created by potrace 1.11, written by Peter Selinger 2001-2013
</metadata>
<g transform="translate(0.000000,512.000000) scale(0.100000,-0.100000)"
fill="#000000" stroke="none">
<path d="M3816 5112 c-4 -6 3 -44 14 -86 23 -84 18 -133 -20 -174 -28 -29 -39
-28 -86 11 -21 18 -64 52 -95 75 -31 22 -78 62 -103 87 -69 67 -80 61 -46 -25
24 -61 24 -64 5 -56 -33 12 -11 -21 71 -106 55 -58 95 -109 112 -146 25 -52
27 -67 27 -182 0 -121 -1 -128 -34 -200 -19 -41 -57 -118 -85 -170 l-51 -95
-6 140 c-6 133 -26 225 -49 225 -4 0 -11 -69 -15 -152 -12 -268 -29 -314 -164
-445 -123 -118 -126 -119 -117 -52 17 125 33 355 26 368 -12 23 -61 -116 -80
-233 -13 -73 -29 -129 -50 -172 -17 -35 -37 -83 -43 -107 -16 -56 -64 -81
-157 -81 -78 -1 -126 17 -145 55 -8 15 -42 63 -75 108 -64 84 -67 92 -121 284
-18 64 -36 117 -41 117 -13 0 -9 -158 7 -255 8 -49 13 -91 11 -93 -2 -2 -33
24 -70 58 -79 74 -104 124 -141 280 -15 63 -31 126 -35 140 l-8 25 -11 -28
c-6 -16 -11 -67 -11 -115 l0 -87 -21 35 c-43 70 -99 187 -116 240 -22 73 -22
181 1 248 10 30 40 82 66 116 26 34 57 81 69 104 l21 42 -21 0 c-19 0 -21 4
-15 33 14 66 26 170 21 175 -10 11 -38 -25 -135 -179 -94 -147 -140 -202 -157
-185 -3 3 -1 17 5 30 15 33 4 39 -29 16 l-27 -20 -12 36 c-13 39 -11 79 14
239 23 146 2 136 -76 -35 -38 -83 -43 -104 -43 -165 0 -49 7 -86 22 -125 111
-274 112 -278 123 -386 8 -83 15 -116 36 -155 35 -64 206 -229 417 -403 92
-76 167 -140 167 -142 0 -7 -205 67 -233 85 -18 11 -45 34 -60 51 -38 42 -51
39 -44 -10 3 -27 28 -73 83 -152 111 -161 129 -182 186 -213 32 -18 60 -43 78
-72 39 -61 44 -93 25 -139 -9 -22 -32 -104 -51 -184 -50 -208 -48 -203 -102
-233 -58 -31 -77 -34 -306 -47 -125 -7 -197 -7 -240 1 -52 9 -83 7 -212 -14
-164 -27 -165 -27 -334 -128 -129 -77 -213 -160 -259 -259 -24 -50 -26 -66
-25 -175 1 -100 8 -151 42 -310 53 -243 61 -317 69 -616 7 -275 5 -289 -74
-479 l-36 -85 -10 -263 c-9 -226 -8 -265 4 -278 11 -10 48 -15 142 -18 124 -3
127 -3 127 18 -1 40 -38 103 -84 141 -29 23 -46 45 -46 59 0 48 136 419 245
670 134 308 155 347 185 339 11 -3 27 0 36 7 12 11 18 10 32 -4 21 -21 30
-170 13 -225 -6 -20 -36 -84 -67 -141 -98 -182 -114 -217 -114 -245 0 -27 76
-200 171 -390 41 -82 48 -106 43 -132 -10 -52 2 -58 131 -61 l118 -2 -7 32
c-10 51 -43 107 -89 152 -51 50 -69 108 -70 234 -1 103 11 132 110 259 36 46
92 138 126 205 54 106 66 123 92 131 33 9 235 -1 254 -12 20 -13 93 -283 106
-396 4 -33 16 -89 27 -124 17 -55 19 -81 13 -200 -3 -75 -7 -154 -8 -176 l-2
-40 98 -8 c112 -10 167 -4 167 19 0 24 -19 56 -57 95 l-35 37 6 133 c3 74 8
154 12 179 4 32 -4 91 -25 196 -21 103 -31 179 -31 241 0 87 1 93 26 112 62
49 161 51 238 6 23 -14 50 -25 59 -25 21 0 20 2 57 -290 17 -135 38 -279 46
-321 12 -62 13 -94 4 -160 -15 -123 -13 -144 15 -178 21 -24 41 -33 99 -46 40
-9 89 -15 108 -13 l35 3 -17 73 c-10 41 -27 87 -39 102 -24 33 -26 58 -10 94
9 19 9 29 0 39 -7 9 -14 85 -19 198 -11 285 -8 391 16 509 12 58 26 156 32
217 12 128 18 148 65 218 19 28 54 95 77 150 49 117 50 135 22 400 -13 114
-17 195 -12 245 20 214 -27 406 -164 678 -43 86 -78 169 -78 184 0 46 25 92
68 127 24 18 52 55 67 86 15 30 56 87 92 127 86 97 115 141 111 170 l-3 23
-27 -26 c-46 -46 -80 -65 -191 -108 -59 -22 -111 -41 -114 -41 -12 0 60 70
212 208 229 206 359 333 388 377 39 60 59 147 51 227 -5 59 -3 74 19 123 29
62 121 165 148 165 25 0 33 16 34 75 1 27 5 75 10 106 9 66 -11 119 -52 138
-25 11 -25 11 -17 -16 20 -67 1 -146 -49 -200 -25 -28 -73 -32 -62 -5 41 95
42 190 2 268 -28 55 -81 111 -91 96z"/>
</g>
</svg>
